<?xml version="1.0" encoding="iso-8859-1"?>
<!-- Generator: Adobe Illustrator 18.1.1, SVG Export Plug-In . SVG Version: 6.00 Build 0)  -->
<svg version="1.1" id="Capa_1" xmlns="http://www.w3.org/2000/svg" xmlns:xlink="http://www.w3.org/1999/xlink" x="0px" y="0px"
	 viewBox="0 0 15.818 15.818" style="enable-background:new 0 0 15.818 15.818;" xml:space="preserve">
<g>
	<path style="fill:#030104;" d="M14.75,0H1.068C0.478,0,0,0.479,0,1.069v13.68c0,0.591,0.479,1.068,1.068,1.068H14.75
		c0.59,0,1.068-0.478,1.068-1.068V1.07C15.818,0.48,15.34,0,14.75,0z M8.399,13.911c-2.494,0-4.556-1.946-4.707-4.434
		C3.683,9.421,3.678,9.363,3.678,9.305V3.009c0-0.606,0.493-1.1,1.1-1.1h0.049c0.606,0,1.1,0.494,1.1,1.1L5.93,9.191
		c0,1.359,1.107,2.468,2.468,2.468c1.361,0,2.467-1.108,2.467-2.468c0-1.355-1.103-2.462-2.457-2.468H7.913
		c-0.621,0-1.127-0.483-1.127-1.077v-0.1c0-0.594,0.506-1.077,1.127-1.077h0.484c2.603,0,4.72,2.118,4.72,4.721
		C13.119,11.793,11.002,13.911,8.399,13.911z"/>
</g>
<g>
</g>
<g>
</g>
<g>
</g>
<g>
</g>
<g>
</g>
<g>
</g>
<g>
</g>
<g>
</g>
<g>
</g>
<g>
</g>
<g>
</g>
<g>
</g>
<g>
</g>
<g>
</g>
<g>
</g>
</svg>
