<?xml version="1.0" encoding="iso-8859-1"?>
<!-- Generator: Adobe Illustrator 18.1.1, SVG Export Plug-In . SVG Version: 6.00 Build 0)  -->
<svg version="1.1" id="Capa_1" xmlns="http://www.w3.org/2000/svg" xmlns:xlink="http://www.w3.org/1999/xlink" x="0px" y="0px"
	 viewBox="0 0 19.005 19.005" style="enable-background:new 0 0 19.005 19.005;" xml:space="preserve">
<g>
	<path style="fill:#030104;" d="M12.233,7.372c-0.587-0.293-1.176-0.47-1.819-0.557c-0.734-0.09-1.471-0.09-2.205,0L7.973,6.873
		v3.437l0.118-0.03c0.353-0.174,0.853-0.264,1.439-0.264c0.354,0,0.732,0.09,1.088,0.234c0.323,0.177,0.646,0.354,0.88,0.617
		c0.294,0.266,0.472,0.56,0.646,0.882c0.148,0.353,0.236,0.734,0.236,1.146c0,0.381-0.088,0.734-0.236,1.086
		c-0.175,0.354-0.379,0.677-0.646,0.882c-0.233,0.263-0.557,0.47-0.88,0.616c-0.355,0.147-0.734,0.234-1.088,0.234
		c-0.41,0-0.793-0.087-1.116-0.234c-0.323-0.146-0.616-0.354-0.881-0.616c-0.264-0.205-0.468-0.528-0.648-0.882
		c-0.086-0.205-0.116-0.352-0.146-0.527H6.653v-0.559V7.402l0,0V0h-3.32v12.866c0,0.821,0.176,1.615,0.529,2.379
		c0.323,0.732,0.792,1.381,1.348,1.939c0.561,0.557,1.207,0.998,1.971,1.35c0.734,0.294,1.526,0.471,2.35,0.471
		c0.822,0,1.615-0.177,2.35-0.471c0.735-0.321,1.382-0.734,1.939-1.321c0.59-0.587,0.998-1.235,1.353-1.968
		c0.321-0.736,0.499-1.527,0.499-2.379c0-0.911-0.148-1.705-0.441-2.41c-0.323-0.704-0.765-1.352-1.352-1.939
		C13.381,8.019,12.82,7.636,12.233,7.372z"/>
</g>
<g>
</g>
<g>
</g>
<g>
</g>
<g>
</g>
<g>
</g>
<g>
</g>
<g>
</g>
<g>
</g>
<g>
</g>
<g>
</g>
<g>
</g>
<g>
</g>
<g>
</g>
<g>
</g>
<g>
</g>
</svg>
